<svg xmlns="http://www.w3.org/2000/svg" viewBox="0 0 64 64">
  <rect x="10" y="6" width="4" height="6" fill="#4be1ff"/>
  <rect x="20" y="6" width="4" height="6" fill="#4be1ff"/>
  <rect x="30" y="6" width="4" height="6" fill="#4be1ff"/>
  <rect x="40" y="6" width="4" height="6" fill="#4be1ff"/>
  <rect x="50" y="6" width="4" height="6" fill="#4be1ff"/>
  <rect x="10" y="52" width="4" height="6" fill="#4be1ff"/>
  <rect x="20" y="52" width="4" height="6" fill="#4be1ff"/>
  <rect x="30" y="52" width="4" height="6" fill="#4be1ff"/>
  <rect x="40" y="52" width="4" height="6" fill="#4be1ff"/>
  <rect x="50" y="52" width="4" height="6" fill="#4be1ff"/>

  <rect x="6" y="10" width="52" height="44" rx="8" fill="#1a1147" stroke="#4be1ff" stroke-width="2"/>
  <rect x="10" y="14" width="44" height="36" rx="5" fill="#2a1f5a"/>

  <circle cx="24" cy="28" r="4" fill="#4be1ff"/>
  <circle cx="40" cy="28" r="4" fill="#4be1ff"/>
  <circle cx="25" cy="27" r="1.2" fill="#0e0a2e"/>
  <circle cx="41" cy="27" r="1.2" fill="#0e0a2e"/>

  <path d="M 22 38 Q 32 46 42 38" stroke="#ff5ccd" stroke-width="2.5" fill="none" stroke-linecap="round"/>

  <text x="32" y="20" font-family="monospace" font-size="6" font-weight="bold" fill="#ffcc44" text-anchor="middle">01</text>
</svg>
